<svg width="31" height="30" fill="none" xmlns="http://www.w3.org/2000/svg"><path d="M26.43 11.8h-1.37c-.19 0-.38.04-.55.09l-6.24-6.24c.6-.78.55-1.89-.16-2.59l-.98-.97a2.03 2.03 0 0 0-2.78 0l-.98.97c-.7.7-.75 1.81-.15 2.59l-6.24 6.24a2.02 2.02 0 0 0-.55-.09H5.06c-1.09 0-1.98.89-1.98 1.97v1.38c0 1.09.89 1.97 1.98 1.97h1.37c1.09 0 1.98-.88 1.98-1.97v-1.38c0-.18-.04-.37-.09-.54l6.24-6.24a1.94 1.94 0 0 0 2.39-.02l6.23 6.24c-.05.18-.08.36-.08.55v1.38c0 1.09.88 1.97 1.97 1.97h1.38c1.08 0 1.97-.88 1.97-1.97v-1.38a2 2 0 0 0-1.99-1.96Z" fill="#1AAB7B"/><path d="m20.43 20.69-2.05 1.81h-5.32L11 20.69c-1.19-.98-1.19-1.73-.29-2.88l3.61-4.57c.25-.31.54-.53.87-.64.33-.11.7-.11 1.05 0 .3.11.6.33.86.64l3.61 4.57c.9 1.14.86 1.85-.29 2.88ZM17.36 27.5h-3.24c-1.15 0-2.01-.94-1.79-1.94l.39-1.73a.75.75 0 0 1 .74-.6h4.56c.35 0 .65.25.74.6l.39 1.73c.25 1.07-.57 1.94-1.8 1.94Z" fill="#1AAB7B"/></svg>