<svg width="81" height="28" fill="none" xmlns="http://www.w3.org/2000/svg"><path d="M0 27.4V.3h9.34c1.17 0 2.32.2 3.42.6a8.7 8.7 0 0 1 2.8 1.7 7.97 7.97 0 0 1 2.6 6.02 8 8 0 0 1-2.6 5.98 8.68 8.68 0 0 1-2.8 1.7c-1.1.4-2.25.61-3.41.6h-5.1V27.4H0Zm9.46-14.57c.64 0 1.28-.11 1.88-.36a4.12 4.12 0 0 0 2.26-2.33 4.06 4.06 0 0 0-.87-4.4 4.48 4.48 0 0 0-3.27-1.35h-5.2v8.44h5.2ZM21.47 8.85V27.4h4.19V8.85h-4.19Z" fill="#fff"/><path d="M26.36 2.83a2.77 2.77 0 0 1-.8 2.01 2.66 2.66 0 0 1-1.99.83V0a2.66 2.66 0 0 1 1.98.83 2.77 2.77 0 0 1 .81 2ZM23.57 0v5.68a2.69 2.69 0 0 1-2.01-.84 2.76 2.76 0 0 1-.81-2 2.78 2.78 0 0 1 .81-2A2.7 2.7 0 0 1 23.57 0Z" fill="#35AF39"/><path d="m34.85 17.97-6.37-9.12h4.86l4 5.87h.1l3.73-5.87h5.05l-6.44 9.12 6.55 9.42h-4.96l-4-6.05h-.11l-3.96 6.05h-4.93l6.48-9.42ZM65.29 22.97a10.06 10.06 0 0 1-3.32 3.59A9.25 9.25 0 0 1 56.7 28a9.74 9.74 0 0 1-3.82-.74 9.05 9.05 0 0 1-5.03-5.18c-.5-1.26-.74-2.6-.72-3.95 0-1.3.22-2.6.68-3.8a9.06 9.06 0 0 1 8.7-6.07c1.43 0 2.7.23 3.82.7a8.11 8.11 0 0 1 4.64 5.12c.42 1.28.63 2.62.62 3.96v.34c-.02.12-.04.23-.04.34-.02.1-.04.2-.04.3h-14.2c.06.81.27 1.6.64 2.32a5.07 5.07 0 0 0 3.01 2.57c.6.2 1.22.3 1.85.3 1.2 0 2.2-.29 2.98-.87a7.2 7.2 0 0 0 1.92-2.15l3.58 1.78ZM61.4 15.8a5.32 5.32 0 0 0-.36-1.26c-.2-.48-.5-.92-.87-1.29a5 5 0 0 0-3.74-1.41c-1.2 0-2.24.35-3.11 1.07a5.28 5.28 0 0 0-1.75 2.9h9.83ZM68.75 8.85h3.96v2.8h.22a6.06 6.06 0 0 1 2.25-2.4c.49-.3 1-.53 1.54-.72.5-.18 1.03-.28 1.57-.28a4.97 4.97 0 0 1 2.71.64l-1.2 3.82a4 4 0 0 0-.93-.28c-.4-.07-.81-.1-1.22-.1-.65 0-1.29.14-1.87.42-.56.28-1.07.67-1.49 1.14-.43.5-.77 1.09-1 1.71a6.09 6.09 0 0 0-.35 2.1v9.7h-4.18V8.84Z" fill="#fff"/></svg>