<svg width="81" height="28" fill="none" xmlns="http://www.w3.org/2000/svg"><path d="M0 27.3919V.303287h9.34316C10.5077.295204 11.664.499932 12.7556.907471c1.0341.383249 1.9864.960249 2.8062 1.700329.8329.76041 1.4952 1.69009 1.9428 2.7273.4477 1.0372.6704 2.15818.6534 3.28848.0118 1.12386-.2135 2.23752-.661 3.26772-.4474 1.0302-1.107 1.9536-1.9352 2.7095-.8196.7404-1.7719 1.3174-2.8062 1.7003-1.0908.4077-2.2463.6128-3.41018.6054H4.25674v10.4797L0 27.3919Zm9.45604-14.5662c.64566.0126 1.28706-.1086 1.88396-.356.5262-.2212 1.0009-.5497 1.3941-.9646.3714-.3946.6652-.8561.8658-1.3603.1962-.48034.2985-.99411.3014-1.51328-.0034-1.07995-.4215-2.11696-1.1672-2.8951-.4264-.43513-.9365-.77853-1.4993-1.00927-.5628-.23074-1.1664-.344-1.77424-.33286H4.25674v8.43591l5.1993-.0045ZM21.4734 8.85371V27.3919h4.1822V8.85371h-4.1822Z" fill="#191919"/><path d="M26.3611 2.83452c.0063.37171-.0622.74086-.2013 1.0854-.139.34454-.3458.65739-.608.91985-.2543.26902-.5615.48192-.9022.62517s-.7074.2137-1.0766.20686V.00062787c.3692-.00655705.7358.06401783 1.0764.20724813.3407.14323.6479.355989.9024.624781.2616.262183.4681.574503.6071.918393.139.3439.2078.71235.2022 1.08347ZM23.5696.00063635V5.67521c-.3741.00868-.7458-.0608-1.0917-.20403-.3459-.14323-.6584-.35709-.9176-.628-.2634-.26242-.4712-.57567-.6109-.92087-.1397-.34521-.2083-.71523-.2019-1.08779-.0053-.37138.0639-.74003.2036-1.08397.1396-.34393.3468-.6561.6092-.917884.2596-.270468.5721-.484026.9179-.627223.3458-.1431974.7174-.21293032 1.0914-.20480665Z" fill="#35AF39"/><path d="M34.8486 17.9709 28.481 8.85371h4.8607l3.9926 5.86389h.1128l3.7251-5.86389h5.0481l-6.4422 9.11719 6.555 9.421h-4.9667l-3.9938-6.0532h-.1128l-3.9599 6.0532h-4.9318l6.4805-9.421ZM65.2893 22.9653c-.7946 1.4541-1.9341 2.6887-3.3176 3.5945-1.4298.9598-3.1874 1.4397-5.2727 1.4397-1.3108.0138-2.611-.2372-3.8233-.738-1.1403-.4726-2.1725-1.1743-3.0331-2.0619-.8643-.8976-1.543-1.9583-1.9968-3.1207-.4887-1.2597-.7316-2.602-.7157-3.9538-.0074-1.2983.2222-2.5869.6773-3.802.4284-1.1594 1.0741-2.2256 1.902-3.1411.8643-.9415 1.9167-1.68929 3.0885-2.19443 1.1717-.50513 2.4365-.75624 3.7115-.73691 1.4298 0 2.7046.23956 3.8244.71868 1.0813.45415 2.0518 1.13826 2.8446 2.00526.8024.8997 1.4115 1.9559 1.7892 3.1025.425 1.2787.6352 2.6195.6219 3.9675v.34c-.0241.1118-.0369.2257-.0383.3401-.0246.099-.0372.2006-.0373.3027H51.3123c.0528.8053.2707 1.5911.6401 2.3079.3237.6218.765 1.1743 1.2992 1.6266.5052.4237 1.0875.7448 1.7147.9454.5957.1972 1.2184.2993 1.8456.3027 1.2041 0 2.1963-.2898 2.9767-.8695.7779-.5804 1.4306-1.3131 1.919-2.1537l3.5817 1.7785Zm-3.882-7.1504c-.0664-.4358-.1866-.8615-.3578-1.2673-.1995-.4824-.494-.9192-.8658-1.2844-.4376-.423-.9483-.7626-1.507-1.002-.6148-.2774-1.3617-.416-2.2407-.416-1.2041 0-2.2403.3593-3.1087 1.078-.8685.7186-1.4524 1.6825-1.752 2.8917h9.832ZM68.7547 8.85369h3.9508v2.79991h.2258c.2375-.492.5506-.9434.9278-1.3376.3879-.41635.8321-.77581 1.3196-1.06783.4895-.2916 1.0073-.5324 1.5454-.71867.5019-.18052 1.0303-.27553 1.5634-.28113.5199-.00978 1.0389.04775 1.5442.17117.4077.10699.8003.26544 1.1683.47156l-1.2056 3.8212c-.2952-.1315-.6053-.2267-.9233-.2834-.4043-.0682-.8138-.1001-1.2237-.0952-.6459-.0075-1.2848.1361-1.8659.4194-.5652.279-1.0707.6664-1.4878 1.1404-.4382.501-.7769 1.0817-.9978 1.7105-.2408.6706-.362 1.3786-.3579 2.0914v9.6964h-4.1765l-.0068-18.53811Z" fill="#191919"/></svg>