<svg width="31" height="30" fill="none" xmlns="http://www.w3.org/2000/svg"><path d="m25.17 8.18-3.84-3.84a6.25 6.25 0 0 0-4.42-1.84h-6.16C7 2.5 4.5 5 4.5 8.75v12.5C4.5 25 7 27.5 10.75 27.5h10C24.5 27.5 27 25 27 21.25v-8.66c0-1.66-.67-3.25-1.83-4.41ZM13.28 21.84c.37.36.37.96 0 1.32a.93.93 0 0 1-.66.28.93.93 0 0 1-.66-.28l-2.5-2.5a.94.94 0 0 1 0-1.32l2.5-2.5a.94.94 0 0 1 1.32 0c.37.36.37.96 0 1.32L11.45 20l1.83 1.84Zm8.75-1.18-2.5 2.5a.93.93 0 0 1-.66.28.93.93 0 0 1-.66-.28.94.94 0 0 1 0-1.32L20.05 20l-1.84-1.84a.94.94 0 0 1 0-1.32.94.94 0 0 1 1.32 0l2.5 2.5c.37.36.37.96 0 1.32Z" fill="#1AAB7B"/></svg>